<svg width="512" height="512" viewBox="0 0 512 512" fill="none" xmlns="http://www.w3.org/2000/svg">
<rect width="512" height="512" rx="96" fill="url(#paint0_linear_15_2)"/>
<path d="M302.705 233.909H254.636C254.295 229.932 253.386 226.324 251.909 223.085C250.489 219.847 248.5 217.062 245.943 214.733C243.443 212.347 240.403 210.528 236.824 209.278C233.244 207.972 229.182 207.318 224.636 207.318C216.682 207.318 209.949 209.25 204.438 213.114C198.983 216.977 194.835 222.517 191.994 229.733C189.21 236.949 187.818 245.614 187.818 255.727C187.818 266.409 189.239 275.358 192.08 282.574C194.977 289.733 199.153 295.131 204.608 298.767C210.063 302.347 216.625 304.136 224.295 304.136C228.67 304.136 232.591 303.597 236.057 302.517C239.523 301.381 242.534 299.761 245.091 297.659C247.648 295.557 249.722 293.028 251.312 290.074C252.96 287.062 254.068 283.682 254.636 279.932L302.705 280.273C302.136 287.659 300.063 295.187 296.483 302.858C292.903 310.472 287.818 317.517 281.227 323.994C274.693 330.415 266.597 335.585 256.938 339.506C247.278 343.426 236.057 345.386 223.273 345.386C207.25 345.386 192.875 341.949 180.148 335.074C167.477 328.199 157.449 318.085 150.062 304.733C142.733 291.381 139.068 275.045 139.068 255.727C139.068 236.295 142.818 219.932 150.318 206.636C157.818 193.284 167.932 183.199 180.659 176.381C193.386 169.506 207.591 166.068 223.273 166.068C234.295 166.068 244.438 167.574 253.699 170.585C262.96 173.597 271.085 178 278.074 183.795C285.063 189.534 290.688 196.608 294.949 205.017C299.21 213.426 301.795 223.057 302.705 233.909ZM371.589 168.455V343H324.203V168.455H371.589Z" fill="white"/>
<defs>
<linearGradient id="paint0_linear_15_2" x1="0" y1="256" x2="512" y2="256" gradientUnits="userSpaceOnUse">
<stop stop-color="#6F57CF"/>
<stop offset="1" stop-color="#8774D8"/>
</linearGradient>
</defs>
</svg>
